<svg id="visual" viewBox="0 0 900 600" width="900" height="600" xmlns="http://www.w3.org/2000/svg" xmlns:xlink="http://www.w3.org/1999/xlink" version="1.1"><path d="M0 73L100 49L200 67L300 61L400 67L500 73L600 73L700 55L800 73L900 55L900 0L800 0L700 0L600 0L500 0L400 0L300 0L200 0L100 0L0 0Z" fill="#00cc8e"></path><path d="M0 145L100 127L200 187L300 187L400 187L500 169L600 199L700 169L800 139L900 163L900 53L800 71L700 53L600 71L500 71L400 65L300 59L200 65L100 47L0 71Z" fill="#00bd8b"></path><path d="M0 223L100 211L200 265L300 259L400 241L500 241L600 259L700 223L800 235L900 229L900 161L800 137L700 167L600 197L500 167L400 185L300 185L200 185L100 125L0 143Z" fill="#00ae87"></path><path d="M0 301L100 283L200 325L300 319L400 313L500 283L600 319L700 301L800 277L900 271L900 227L800 233L700 221L600 257L500 239L400 239L300 257L200 263L100 209L0 221Z" fill="#00a081"></path><path d="M0 493L100 463L200 445L300 499L400 451L500 415L600 505L700 433L800 487L900 457L900 269L800 275L700 299L600 317L500 281L400 311L300 317L200 323L100 281L0 299Z" fill="#00917b"></path><path d="M0 601L100 601L200 601L300 601L400 601L500 601L600 601L700 601L800 601L900 601L900 455L800 485L700 431L600 503L500 413L400 449L300 497L200 443L100 461L0 491Z" fill="#038373"></path></svg>